# xmcd
#
# Track frame offsets:
#	151
#	12422
#	23378
#	34704
#	50060
#	62122
#	82035
#	95188
#	107852
#	119809
#	130860
#	143563
#	154158
#	168437
#	183883
#	196774
#	213883
#	224965
#
# Disc length: 3219 seconds
#
# Revision: 0
# Processed by: cddbd v1.5.1PL0 Copyright (c) Steve Scherf et al.
# Submitted via: dBpowerAMP V4.0
#
DISCID=080c9112
DTITLE=Ronnie Beard - Wonderful Crazy
DYEAR=1900
DGENRE=
TTITLE0=Hillbillyville
TTITLE1=Honky Tonk Angel
TTITLE2=Million Dollar Cowboy
TTITLE3=Par Ti Sere
TTITLE4=Anger
TTITLE5=Headliner Man
TTITLE6=Eatin' Right And Drinkin' Bad
TTITLE7=Country Care
TTITLE8=Boomshake
TTITLE9=Groove It
TTITLE10=I Got A New Girl Now
TTITLE11=Nowhere Town
TTITLE12=Tears Of regret
TTITLE13=Wonderful Crazy
TTITLE14=Drinkin' To Forget
TTITLE15=Angels
TTITLE16=Just Remember
TTITLE17=Talk To Me
EXTD=
EXTT0=
EXTT1=
EXTT2=
EXTT3=
EXTT4=
EXTT5=
EXTT6=
EXTT7=
EXTT8=
EXTT9=
EXTT10=
EXTT11=
EXTT12=
EXTT13=
EXTT14=
EXTT15=
EXTT16=
EXTT17=
PLAYORDER=
